<svg width="500" height="500" version="1.1" xmlns="http://www.w3.org/2000/svg" desc="Created with imagetracer.js version 1.2.6" ><path fill="black" stroke="black" stroke-width="1" opacity="0.4980392156862745" d="M 131.5 60 L 355 60.5 L 131.5 61 L 131.5 60 Z " /><path fill="black" stroke="black" stroke-width="1" opacity="0.4980392156862745" d="M 124.5 61 L 127 61.5 L 124.5 62 L 124.5 61 Z " /><path fill="black" stroke="black" stroke-width="1" opacity="0.4980392156862745" d="M 358.5 61 L 362 61.5 L 358.5 62 L 358.5 61 Z " /><path fill="black" stroke="black" stroke-width="1" opacity="0.4980392156862745" d="M 363.5 62 L 366 62.5 L 363.5 63 L 363.5 62 Z " /><path fill="black" stroke="black" stroke-width="1" opacity="0.4980392156862745" d="M 114.5 64 L 116 64.5 L 111.5 67 L 112.5 65 L 114.5 64 Z " /><path fill="black" stroke="black" stroke-width="1" opacity="0.4980392156862745" d="M 370.5 64 L 374 65.5 L 372.5 66 L 370.5 64 Z " /><path fill="black" stroke="black" stroke-width="1" opacity="0.4980392156862745" d="M 375.5 66 L 389 77.5 L 392 82.5 L 390 81.5 Q 387 74 380.5 70 Q 375.9 68.8 375.5 66 Z " /><path fill="black" stroke="black" stroke-width="1" opacity="0.4980392156862745" d="M 109.5 67 L 102 75.5 L 100.5 78 L 101 76.5 L 109.5 67 Z " /><path fill="black" stroke="black" stroke-width="1" opacity="0.4980392156862745" d="M 99.5 79 L 100 80.5 L 98.5 83 L 98 81.5 L 99.5 79 Z " /><path fill="black" stroke="black" stroke-width="1" opacity="0.4980392156862745" d="M 393.5 86 L 395 90.5 L 394 90.5 L 393.5 86 Z " /><path fill="black" stroke="black" stroke-width="1" opacity="0.4980392156862745" d="M 96.5 88 L 97 90.5 L 96 90.5 L 96.5 88 Z " /><path fill="black" stroke="black" stroke-width="1" opacity="0.4980392156862745" d="M 95.5 94 L 96 107.5 L 95 107.5 L 95.5 94 Z " /><path fill="black" stroke="black" stroke-width="1" opacity="0.4980392156862745" d="M 396.5 96 L 397 101.5 L 396 101.5 L 396.5 96 Z " /><path fill="black" stroke="black" stroke-width="1" opacity="0.4980392156862745" d="M 396.5 107 L 397 113.5 L 396 113.5 L 396.5 107 Z " /><path fill="black" stroke="black" stroke-width="1" opacity="0.4980392156862745" d="M 96.5 111 L 97 113.5 L 96 113.5 L 96.5 111 Z " /><path fill="black" stroke="black" stroke-width="1" opacity="0.4980392156862745" d="M 395.5 116 L 396 118.5 L 395 118.5 L 395.5 116 Z " /><path fill="black" stroke="black" stroke-width="1" opacity="0.4980392156862745" d="M 394.5 120 L 395 122.5 L 394 122.5 L 394.5 120 Z " /><path fill="black" stroke="black" stroke-width="1" opacity="0.4980392156862745" d="M 101.5 126 L 107.5 133 L 111 135.5 L 108.5 134 L 103 129.5 L 101.5 126 Z " /><path fill="black" stroke="black" stroke-width="1" opacity="0.4980392156862745" d="M 392.5 127 L 393 128.5 L 391.5 131 L 391 129.5 L 392.5 127 Z " /><path fill="black" stroke="black" stroke-width="1" opacity="0.4980392156862745" d="M 387.5 138 L 387 139.5 L 385.5 142 L 386 140.5 L 387.5 138 Z " /><path fill="black" stroke="black" stroke-width="1" opacity="0.4980392156862745" d="M 122.5 140 L 125 140.5 L 122.5 141 L 122.5 140 Z " /><path fill="black" stroke="black" stroke-width="1" opacity="0.4980392156862745" d="M 127.5 141 L 132 141.5 L 127.5 142 L 127.5 141 Z " /><path fill="black" stroke="black" stroke-width="1" opacity="0.4980392156862745" d="M 277.5 142 L 276 144.5 L 272.5 149 L 275 145.5 L 277.5 142 Z " /><path fill="black" stroke="black" stroke-width="1" opacity="0.4980392156862745" d="M 384.5 143 L 384 144.5 L 381.5 148 L 383 145.5 L 384.5 143 Z " /><path fill="black" stroke="black" stroke-width="1" opacity="0.4980392156862745" d="M 380.5 149 L 378.5 152 L 380.5 149 Z " /><path fill="black" stroke="black" stroke-width="1" opacity="0.4980392156862745" d="M 271.5 150 L 268.5 154 L 271.5 150 Z " /><path fill="black" stroke="black" stroke-width="1" opacity="0.4980392156862745" d="M 377.5 153 L 374.5 157 L 377.5 153 Z " /><path fill="black" stroke="black" stroke-width="1" opacity="0.4980392156862745" d="M 267.5 155 L 264.5 159 L 267.5 155 Z " /><path fill="black" stroke="black" stroke-width="1" opacity="0.4980392156862745" d="M 373.5 158 L 370.5 162 L 373.5 158 Z " /><path fill="black" stroke="black" stroke-width="1" opacity="0.4980392156862745" d="M 263.5 160 L 260.5 164 L 263.5 160 Z " /><path fill="black" stroke="black" stroke-width="1" opacity="0.4980392156862745" d="M 369.5 163 L 366.5 167 L 369.5 163 Z " /><path fill="black" stroke="black" stroke-width="1" opacity="0.4980392156862745" d="M 259.5 165 L 257 168.5 L 241.5 188 L 244 184.5 L 259.5 165 Z " /><path fill="black" stroke="black" stroke-width="1" opacity="0.4980392156862745" d="M 365.5 168 L 363 171.5 L 327.5 216 L 330 212.5 L 365.5 168 Z " /><path fill="black" stroke="black" stroke-width="1" opacity="0.4980392156862745" d="M 240.5 189 L 237.5 193 L 240.5 189 Z " /><path fill="black" stroke="black" stroke-width="1" opacity="0.4980392156862745" d="M 236.5 194 L 233.5 198 L 236.5 194 Z " /><path fill="black" stroke="black" stroke-width="1" opacity="0.4980392156862745" d="M 232.5 199 L 229.5 203 L 232.5 199 Z " /><path fill="black" stroke="black" stroke-width="1" opacity="0.4980392156862745" d="M 228.5 204 L 225.5 208 L 228.5 204 Z " /><path fill="black" stroke="black" stroke-width="1" opacity="0.4980392156862745" d="M 224.5 209 L 222 212.5 L 206.5 232 L 209 228.5 L 224.5 209 Z " /><path fill="black" stroke="black" stroke-width="1" opacity="0.4980392156862745" d="M 326.5 217 L 323.5 221 L 326.5 217 Z " /><path fill="black" stroke="black" stroke-width="1" opacity="0.4980392156862745" d="M 322.5 222 L 319.5 226 L 322.5 222 Z " /><path fill="black" stroke="black" stroke-width="1" opacity="0.4980392156862745" d="M 318.5 227 L 315.5 231 L 318.5 227 Z " /><path fill="black" stroke="black" stroke-width="1" opacity="0.4980392156862745" d="M 314.5 232 L 311.5 236 L 314.5 232 Z " /><path fill="black" stroke="black" stroke-width="1" opacity="0.4980392156862745" d="M 205.5 233 L 202.5 237 L 205.5 233 Z " /><path fill="black" stroke="black" stroke-width="1" opacity="0.4980392156862745" d="M 310.5 237 L 307.5 241 L 310.5 237 Z " /><path fill="black" stroke="black" stroke-width="1" opacity="0.4980392156862745" d="M 201.5 238 L 198.5 242 L 201.5 238 Z " /><path fill="black" stroke="black" stroke-width="1" opacity="0.4980392156862745" d="M 306.5 242 L 303.5 246 L 306.5 242 Z " /><path fill="black" stroke="black" stroke-width="1" opacity="0.4980392156862745" d="M 197.5 243 L 194.5 247 L 197.5 243 Z " /><path fill="black" stroke="black" stroke-width="1" opacity="0.4980392156862745" d="M 302.5 247 L 299.5 251 L 302.5 247 Z " /><path fill="black" stroke="black" stroke-width="1" opacity="0.4980392156862745" d="M 193.5 248 L 191 251.5 L 171.5 276 L 174 272.5 L 193.5 248 Z " /><path fill="black" stroke="black" stroke-width="1" opacity="0.4980392156862745" d="M 298.5 252 L 295.5 256 L 298.5 252 Z " /><path fill="black" stroke="black" stroke-width="1" opacity="0.4980392156862745" d="M 294.5 257 L 291.5 261 L 294.5 257 Z " /><path fill="black" stroke="black" stroke-width="1" opacity="0.4980392156862745" d="M 290.5 262 L 288 265.5 L 252.5 310 L 255 306.5 L 290.5 262 Z " /><path fill="black" stroke="black" stroke-width="1" opacity="0.4980392156862745" d="M 170.5 277 L 167.5 281 L 170.5 277 Z " /><path fill="black" stroke="black" stroke-width="1" opacity="0.4980392156862745" d="M 166.5 282 L 163.5 286 L 166.5 282 Z " /><path fill="black" stroke="black" stroke-width="1" opacity="0.4980392156862745" d="M 162.5 287 L 159.5 291 L 162.5 287 Z " /><path fill="black" stroke="black" stroke-width="1" opacity="0.4980392156862745" d="M 158.5 292 L 156 295.5 L 140.5 315 L 143 311.5 L 158.5 292 Z " /><path fill="black" stroke="black" stroke-width="1" opacity="0.4980392156862745" d="M 251.5 311 L 248.5 315 L 251.5 311 Z " /><path fill="black" stroke="black" stroke-width="1" opacity="0.4980392156862745" d="M 139.5 316 L 136.5 320 L 139.5 316 Z " /><path fill="black" stroke="black" stroke-width="1" opacity="0.4980392156862745" d="M 247.5 316 L 244.5 320 L 247.5 316 Z " /><path fill="black" stroke="black" stroke-width="1" opacity="0.4980392156862745" d="M 135.5 321 L 132.5 325 L 135.5 321 Z " /><path fill="black" stroke="black" stroke-width="1" opacity="0.4980392156862745" d="M 243.5 321 L 240.5 325 L 243.5 321 Z " /><path fill="black" stroke="black" stroke-width="1" opacity="0.4980392156862745" d="M 131.5 326 L 128.5 330 L 131.5 326 Z " /><path fill="black" stroke="black" stroke-width="1" opacity="0.4980392156862745" d="M 239.5 326 L 236.5 330 L 239.5 326 Z " /><path fill="black" stroke="black" stroke-width="1" opacity="0.4980392156862745" d="M 127.5 331 L 124.5 335 L 127.5 331 Z " /><path fill="black" stroke="black" stroke-width="1" opacity="0.4980392156862745" d="M 235.5 331 L 232.5 335 L 235.5 331 Z " /><path fill="black" stroke="black" stroke-width="1" opacity="0.4980392156862745" d="M 123.5 336 L 121 339.5 L 113.5 349 L 116 345.5 L 123.5 336 Z " /><path fill="black" stroke="black" stroke-width="1" opacity="0.4980392156862745" d="M 231.5 336 L 228.5 340 L 231.5 336 Z " /><path fill="black" stroke="black" stroke-width="1" opacity="0.4980392156862745" d="M 227.5 341 L 224.5 345 L 227.5 341 Z " /><path fill="black" stroke="black" stroke-width="1" opacity="0.4980392156862745" d="M 223.5 346 L 220.5 350 L 223.5 346 Z " /><path fill="black" stroke="black" stroke-width="1" opacity="0.4980392156862745" d="M 112.5 350 L 111 352.5 L 107.5 358 L 108 356.5 L 112.5 350 Z " /><path fill="black" stroke="black" stroke-width="1" opacity="0.4980392156862745" d="M 219.5 351 L 216.5 355 L 219.5 351 Z " /><path fill="black" stroke="black" stroke-width="1" opacity="0.4980392156862745" d="M 215.5 356 L 216.5 357 L 369 357.5 L 214.5 358 L 215.5 356 Z " /><path fill="black" stroke="black" stroke-width="1" opacity="0.4980392156862745" d="M 373.5 358 L 377 358.5 L 373.5 359 L 373.5 358 Z " /><path fill="black" stroke="black" stroke-width="1" opacity="0.4980392156862745" d="M 106.5 359 L 106 360.5 L 101.5 370 L 101 368.5 L 106.5 359 Z " /><path fill="black" stroke="black" stroke-width="1" opacity="0.4980392156862745" d="M 378.5 359 L 381 359.5 L 378.5 360 L 378.5 359 Z " /><path fill="black" stroke="black" stroke-width="1" opacity="0.4980392156862745" d="M 385.5 361 L 390 363.5 L 388.5 363 Q 384.8 362.8 385.5 361 Z " /><path fill="black" stroke="black" stroke-width="1" opacity="0.4980392156862745" d="M 391.5 364 L 392.5 366 L 391.5 364 Z " /><path fill="black" stroke="black" stroke-width="1" opacity="0.4980392156862745" d="M 394.5 366 L 397.5 370 L 394.5 366 Z " /><path fill="black" stroke="black" stroke-width="1" opacity="0.4980392156862745" d="M 398.5 371 L 403 378.5 L 402 378.5 L 398.5 371 Z " /><path fill="black" stroke="black" stroke-width="1" opacity="0.4980392156862745" d="M 97.5 381 L 98 383.5 L 97 383.5 L 97.5 381 Z " /><path fill="black" stroke="black" stroke-width="1" opacity="0.4980392156862745" d="M 404.5 383 L 405 385.5 L 404 385.5 L 404.5 383 Z " /><path fill="black" stroke="black" stroke-width="1" opacity="0.4980392156862745" d="M 96.5 387 L 97 400.5 L 96 400.5 L 96.5 387 Z " /><path fill="black" stroke="black" stroke-width="1" opacity="0.4980392156862745" d="M 405.5 388 L 406 392.5 L 405 392.5 L 405.5 388 Z " /><path fill="black" stroke="black" stroke-width="1" opacity="0.4980392156862745" d="M 97.5 404 L 98 406.5 L 97 406.5 L 97.5 404 Z " /><path fill="black" stroke="black" stroke-width="1" opacity="0.4980392156862745" d="M 405.5 404 L 406 408.5 L 405 408.5 L 405.5 404 Z " /><path fill="black" stroke="black" stroke-width="1" opacity="0.4980392156862745" d="M 403.5 414 L 404 416.5 L 402.5 419 L 402 417.5 L 403.5 414 Z " /><path fill="black" stroke="black" stroke-width="1" opacity="0.4980392156862745" d="M 102.5 418 L 110.5 428 L 117 432.5 L 115.5 432 L 106 424.5 L 102.5 418 Z " /><path fill="black" stroke="black" stroke-width="1" opacity="0.4980392156862745" d="M 400.5 422 L 400 423.5 L 392.5 432 L 399 424.5 L 400.5 422 Z " /><path fill="black" stroke="black" stroke-width="1" opacity="0.4980392156862745" d="M 390.5 432 L 389.5 434 L 384.5 436 L 384.5 435 L 390.5 432 Z " /><path fill="black" stroke="black" stroke-width="1" opacity="0.4980392156862745" d="M 128.5 437 L 131 437.5 L 128.5 438 L 128.5 437 Z " /><path fill="black" stroke="black" stroke-width="1" opacity="0.4980392156862745" d="M 377.5 437 L 380 437.5 L 377.5 438 L 377.5 437 Z " /><path fill="black" stroke="black" stroke-width="1" opacity="0.4980392156862745" d="M 133.5 438 L 138 438.5 L 133.5 439 L 133.5 438 Z " /><path fill="black" stroke="black" stroke-width="1" opacity="0.4980392156862745" d="M 371.5 438 L 375 438.5 L 371.5 439 L 371.5 438 Z " /><path fill="black" stroke="black" stroke-width="1" opacity="1" d="M 127.5 61 L 357.5 61 L 374.5 66 L 388 77.5 Q 393.7 84.3 396 94.5 L 397 106.5 L 393 126.5 L 381 148.5 L 214 357.5 L 372.5 358 L 384.5 361 Q 392.9 364.1 398 370.5 Q 403.1 376.9 405 386.5 L 406 403.5 Q 403.5 405 405 410.5 L 401 421.5 L 391.5 432 L 383.5 436 L 370.5 439 L 138.5 439 L 121.5 435 L 107 424.5 Q 94.4 412.1 97 384.5 Q 101.4 363.4 113 349.5 L 278 142.5 L 132.5 142 L 115.5 138 L 104 129.5 Q 93.3 117.2 96 91.5 L 100 78.5 L 110.5 67 L 127.5 61 Z " /><path fill="black" stroke="black" stroke-width="1" opacity="0" d="M 0 0 L 500 0 L 500 500 L 0 500 L 0 0 Z M 132 60 L 121 62 L 110 67 L 101 76 L 97 85 L 95 95 Q 94 117 103 130 L 111 136 L 128 142 L 277 143 L 110 353 L 101 369 L 96 388 L 97 407 L 106 425 Q 116 436 134 439 L 375 439 L 386 436 L 393 432 L 400 425 L 404 417 L 406 409 Q 409 382 398 370 L 387 361 L 369 357 L 216 357 L 384 146 Q 394 133 397 114 L 397 97 L 395 89 L 389 78 L 378 67 L 366 62 L 355 60 L 132 60 Z " /></svg>